<?xml version="1.0" encoding="UTF-8" standalone="no"?>
<svg
   height="1160"
   ed:hSpacing="30"
   ed:name="Página-1"
   ed:vSpacing="30"
   id="page300000100"
   viewBox="0 0 1655 1160"
   width="1655"
   version="1.1"
   sodipodi:docname="o-papel-da-educacao-na-prevencao-das-drogas.svg"
   inkscape:version="1.3.2 (091e20e, 2023-11-25, custom)"
   inkscape:export-filename="O Papel da Educação na Prevenção das Drogas.png"
   inkscape:export-xdpi="100.53416"
   inkscape:export-ydpi="100.53416"
   xmlns:inkscape="http://www.inkscape.org/namespaces/inkscape"
   xmlns:sodipodi="http://sodipodi.sourceforge.net/DTD/sodipodi-0.dtd"
   xmlns="http://www.w3.org/2000/svg"
   xmlns:svg="http://www.w3.org/2000/svg"
   xmlns:ed="https://www.edrawsoft.com/xml/2017/SVGExtensions/">
  <sodipodi:namedview
     id="namedview110"
     pagecolor="#ffffff"
     bordercolor="#000000"
     borderopacity="0.25"
     inkscape:showpageshadow="2"
     inkscape:pageopacity="0.0"
     inkscape:pagecheckerboard="0"
     inkscape:deskcolor="#d1d1d1"
     showguides="true"
     inkscape:zoom="0.66982759"
     inkscape:cx="827.82496"
     inkscape:cy="857.68339"
     inkscape:window-width="1920"
     inkscape:window-height="991"
     inkscape:window-x="-9"
     inkscape:window-y="-9"
     inkscape:window-maximized="1"
     inkscape:current-layer="page300000100"
     inkscape:lockguides="false"
     inkscape:export-bgcolor="#ffffff00">
    <sodipodi:guide
       position="-31.351351,147.79923"
       orientation="1,0"
       id="guide111"
       inkscape:locked="false" />
  </sodipodi:namedview>
  <style
     type="text/css"
     id="style1"><![CDATA[
g[ed\:togtopicid],g[ed\:hyperlink],g[ed\:comment],g[ed\:note] {cursor:pointer;}
g[id] {-moz-user-select: none;-ms-user-select: none;user-select: none;}
svg text::selection,svg tspan::selection{background-color: #4285f4;color: #ffffff;fill: #ffffff;}
.st4 {fill:#454545;font-family:Arial;font-size:10pt}
.st3 {fill:#ffffff;font-family:Arial;font-size:14pt;font-weight:bold}
]]></style>
  <defs
     id="defs1">
    <filter
       id="filter2"
       x="-0.015420861"
       y="-0.13533835"
       width="1.0308417"
       height="1.2706767">
      <feGaussianBlur
         stdDeviation="3"
         id="feGaussianBlur1" />
    </filter>
  </defs>
  <path
     style="fill:#e6e6e6;stroke-width:1.49292"
     d="M 13.436293,519.53668 V 11.196911 H 827.82496 1642.2136 V 519.53668 1027.8764 H 827.82496 13.436293 Z"
     id="path5"
     inkscape:label="path5" />
  <path
     stroke="#f83d2e"
     ed:parentid="101"
     id="113"
     fill="#f83d2e"
     d="m 348.78,457.74 c -0.2,2.6 1.3,4.3 3.2,4.5 2,0.1 3.6,-1.5 3.8,-4 1.3,-13.8 2.5,-27.7 4.3,-41.5 1.8,-13.8 4.1,-27.6 6.8,-41.3 2.6,-13.7 5.5,-27.3 8.8,-40.9 3.2,-13.6 6.8,-27.1 10.6,-40.5 3.9,-13.4 8.1,-26.7 12.6,-39.9 4.5,-13.2 9.3,-26.3 14.6,-39.3 5.3,-12.9 11,-25.8 17,-38.2 6.1,-12.4 12.5,-24.4 20.1,-36.7 7.6,-12.2 16.4,-24.6 24.2,-34 7.8,-9.4 14.5,-15.8 19.2,-20 4.7,-4.3 7.4,-6.4 10.7,-8.8 3.3,-2.4 7.2,-5.1 11.6,-7.6 4.4,-2.4 9.4,-4.6 12.5,-5.9 3.2,-1.3 4.6,-1.7 6.5,-2.3 2,-0.5 4.5,-1.2 6.7,-1.7 2.3,-0.5 4.4,-0.8 6.8,-1.1 2.5,-0.2 5.5,-0.4 6.9,-0.5 1.5,0 1.5,0 1.5,0 0.3,0.7 1.2,-0.4 1.2,-1 0,-0.5 -0.9,-0.3 -1.2,-1 0,0 0,0 -1.5,0 -1.5,0.1 -4.5,0.2 -7.1,0.4 -2.6,0.3 -4.7,0.6 -7,1.1 -2.3,0.5 -4.9,1.2 -6.9,1.7 -2,0.5 -3.5,0.9 -6.7,2.2 -3.3,1.3 -8.3,3.5 -12.9,6 -4.5,2.5 -8.5,5.2 -11.9,7.6 -3.4,2.4 -6.2,4.5 -11,8.8 -4.9,4.3 -11.8,10.7 -19.7,20.2 -8,9.4 -17,21.9 -24.8,34.1 -7.8,12.3 -14.4,24.3 -20.7,36.8 -6.2,12.4 -12.1,25.3 -17.5,38.3 -5.5,12.9 -10.5,26 -15.2,39.3 -4.6,13.2 -9,26.6 -13,40 -4,13.5 -7.7,27 -11.1,40.6 -3.4,13.7 -6.5,27.4 -9.3,41.1 -2.8,13.8 -5.3,27.7 -7.3,41.6 -1.9,13.9 -3.3,27.9 -4.8,41.9 z"
     stroke-linecap="round"
     stroke-linejoin="round"
     ed:tosuperid="112" />
  <path
     stroke="#f83d2e"
     ed:parentid="112"
     id="115"
     fill="none"
     stroke-linecap="round"
     d="m 945.2,57.08 h 11 c 16.3,-18.2 16.3,-18.2 32.2,-18.2"
     stroke-linejoin="round"
     ed:tosuperid="114" />
  <path
     stroke="#f83d2e"
     ed:parentid="112"
     id="117"
     fill="none"
     stroke-linecap="round"
     d="m 956.2,57.03 c 16.3,18.2 16.3,18.2 32.2,18.2"
     stroke-linejoin="round"
     ed:tosuperid="116" />
  <path
     stroke="#f7b426"
     ed:parentid="101"
     id="119"
     fill="#f7b426"
     d="m 353.38,457.69 c -0.3,2.5 1.1,4.3 3.1,4.5 1.9,0.2 3.5,-1.3 3.9,-3.8 1.8,-13.8 3.6,-27.5 6.2,-41.2 2.5,-13.7 5.8,-27.2 9.6,-40.6 3.7,-13.5 7.8,-26.8 12.3,-40 4.6,-13.1 9.6,-26.1 15.1,-39 5.6,-12.8 11.6,-25.5 18,-37.7 6.5,-12.2 13.3,-24 21.5,-35.8 8.1,-11.9 17.5,-23.8 25.7,-32.8 8.2,-9 15.3,-15.1 20.2,-19.1 4.9,-4 7.7,-6 11.1,-8.2 3.5,-2.3 7.5,-4.8 12,-7.1 4.4,-2.3 9.4,-4.4 12.6,-5.6 3.2,-1.3 4.6,-1.7 6.5,-2.2 2,-0.6 4.4,-1.2 6.7,-1.8 2.3,-0.5 4.5,-0.9 6.8,-1.2 2.4,-0.3 4.8,-0.6 6.9,-0.7 2.1,-0.2 3.9,-0.2 5.6,-0.2 0.7,-0.1 1.2,-0.5 1.2,-1 0,-0.6 -0.5,-1 -1.2,-1 -1.8,0 -3.6,0 -5.7,0.1 -2.2,0.1 -4.7,0.4 -7.1,0.7 -2.3,0.3 -4.6,0.6 -6.9,1.1 -2.4,0.6 -4.9,1.2 -6.9,1.7 -2,0.6 -3.5,1 -6.8,2.2 -3.2,1.2 -8.3,3.3 -12.9,5.6 -4.6,2.3 -8.8,4.8 -12.3,7.1 -3.5,2.2 -6.4,4.2 -11.5,8.2 -5,4 -12.3,10.1 -20.7,19.1 -8.5,9 -18.1,21 -26.5,32.9 -8.4,11.9 -15.4,23.7 -22.1,36 -6.7,12.2 -12.9,24.9 -18.6,37.8 -5.8,12.9 -11,25.9 -15.8,39.1 -4.7,13.2 -9,26.6 -13,40.2 -3.9,13.5 -7.4,27.1 -10.2,40.9 -2.8,13.8 -4.8,27.8 -6.8,41.8 z"
     stroke-linecap="round"
     stroke-linejoin="round"
     ed:tosuperid="118" />
  <path
     stroke="#f7b426"
     ed:parentid="118"
     id="121"
     fill="none"
     stroke-linecap="round"
     d="m 1092.4,144.18 h 11 c 16.3,-14.2 16.3,-14.2 32.2,-14.2"
     stroke-linejoin="round"
     ed:tosuperid="120" />
  <path
     stroke="#f7b426"
     ed:parentid="118"
     id="123"
     fill="none"
     stroke-linecap="round"
     d="m 1103.4,144.13 c 16.3,14.2 16.3,14.2 32.2,14.2"
     stroke-linejoin="round"
     ed:tosuperid="122" />
  <path
     stroke="#26b14c"
     ed:parentid="101"
     id="125"
     fill="#26b14c"
     d="m 362.78,457.44 c -0.6,2.4 0.8,4.4 2.7,4.7 1.9,0.4 3.7,-1 4.2,-3.5 1.9,-9 3.8,-18 6.3,-26.9 2.4,-8.9 5.4,-17.6 8.8,-26.3 3.3,-8.6 6.9,-17.1 10.9,-25.5 3.9,-8.4 8.2,-16.6 12.7,-24.7 4.6,-8 9.5,-15.9 14.7,-23.6 5.3,-7.6 11,-15.1 16.8,-22.2 5.7,-7 11.6,-13.6 18.9,-20.3 7.2,-6.7 15.7,-13.6 21.2,-17.8 5.6,-4.2 8.1,-5.6 11.6,-7.6 3.5,-2 8,-4.5 12.2,-6.6 4.2,-2.1 8.1,-3.8 12.7,-5.4 4.7,-1.6 9.9,-3.2 13.3,-4 3.4,-0.9 4.8,-1.2 6.8,-1.5 1.9,-0.3 4.4,-0.8 6.8,-1.1 2.4,-0.3 4.6,-0.5 6.9,-0.6 2.3,-0.2 4.6,-0.2 6.9,-0.3 0.7,0 1.2,-0.4 1.2,-1 0,-0.5 -0.5,-1 -1.2,-1 -2.3,0 -4.7,0.1 -7,0.2 -2.3,0.1 -4.6,0.2 -7,0.5 -2.5,0.3 -5,0.7 -7,1 -2.1,0.3 -3.5,0.5 -7,1.4 -3.4,0.8 -8.8,2.3 -13.6,3.9 -4.7,1.5 -8.7,3.2 -13.1,5.2 -4.3,2.1 -8.9,4.6 -12.5,6.6 -3.6,2 -6.2,3.4 -11.9,7.6 -5.7,4.1 -14.5,11 -22,17.7 -7.4,6.8 -13.5,13.3 -19.5,20.4 -6,7 -11.9,14.5 -17.3,22.2 -5.5,7.7 -10.6,15.6 -15.3,23.7 -4.8,8.1 -9.3,16.4 -13.4,24.8 -4.2,8.5 -8,17.1 -11.5,25.8 -3.5,8.7 -6.7,17.6 -9.4,26.7 -2.7,9 -4.8,18.2 -6.9,27.5 z"
     stroke-linecap="round"
     stroke-linejoin="round"
     ed:tosuperid="124" />
  <path
     stroke="#26b14c"
     ed:parentid="124"
     id="127"
     fill="none"
     stroke-linecap="round"
     d="m 908.4,243.28 h 11 c 16.3,-22.2 16.3,-22.2 32.2,-22.2"
     stroke-linejoin="round"
     ed:tosuperid="126" />
  <path
     stroke="#26b14c"
     ed:parentid="124"
     id="129"
     fill="none"
     stroke-linecap="round"
     d="m 919.4,243.23 c 16.3,22.2 16.3,22.2 32.2,22.2"
     stroke-linejoin="round"
     ed:tosuperid="128" />
  <path
     stroke="#1e61ff"
     ed:parentid="101"
     id="131"
     fill="#1e61ff"
     d="m 391.28,456.59 c -1.2,2.2 -0.3,4.5 1.5,5.3 1.7,0.8 3.8,-0.2 4.9,-2.4 3,-6.1 6.1,-12.2 9.7,-18 3.6,-5.9 7.7,-11.4 12.1,-16.8 4.3,-5.3 8.9,-10.4 13.8,-15.3 5,-4.9 10.2,-9.5 15.5,-13.8 5.3,-4.3 10.7,-8.3 16.8,-12.1 6.1,-3.9 12.9,-7.6 18.1,-10.3 5.2,-2.6 8.7,-4.1 12.6,-5.6 4,-1.6 8.3,-3.2 13.1,-4.7 4.8,-1.4 10,-2.7 13.4,-3.5 3.4,-0.8 4.8,-1.1 6.8,-1.4 2,-0.3 4.5,-0.8 6.9,-1.1 2.3,-0.3 4.6,-0.6 6.9,-0.8 2.3,-0.2 4.6,-0.4 6.9,-0.5 2.3,-0.1 4.6,-0.2 6.9,-0.2 0.7,-0.1 1.2,-0.5 1.2,-1 0,-0.6 -0.5,-1 -1.2,-1 -2.3,0 -4.6,0 -7,0 -2.3,0.1 -4.7,0.2 -7,0.4 -2.4,0.1 -4.6,0.3 -7,0.6 -2.5,0.3 -5,0.7 -7,0.9 -2.1,0.3 -3.6,0.6 -7,1.3 -3.4,0.7 -8.8,1.9 -13.7,3.3 -4.9,1.3 -9.4,2.9 -13.4,4.4 -4.1,1.5 -7.8,2.9 -13.1,5.4 -5.3,2.6 -12.4,6.2 -18.7,10 -6.4,3.8 -12,7.7 -17.5,12 -5.6,4.3 -11.1,8.9 -16.2,13.8 -5.2,4.9 -10.1,10 -14.7,15.4 -4.7,5.4 -9.1,11 -13,17 -3.8,6 -7.2,12.3 -10.6,18.7 z"
     stroke-linecap="round"
     stroke-linejoin="round"
     ed:tosuperid="130" />
  <path
     stroke="#1e61ff"
     ed:parentid="130"
     id="133"
     fill="none"
     stroke-linecap="round"
     d="m 1013.2,354.38 h 11 c 16.3,-18.2 16.3,-18.2 32.2,-18.2"
     stroke-linejoin="round"
     ed:tosuperid="132" />
  <path
     stroke="#1e61ff"
     ed:parentid="130"
     id="135"
     fill="none"
     stroke-linecap="round"
     d="m 1024.2,354.33 c 16.3,18.2 16.3,18.2 32.2,18.2"
     stroke-linejoin="round"
     ed:tosuperid="134" />
  <path
     stroke="#bb43fe"
     ed:parentid="101"
     id="137"
     fill="#bb43fe"
     d="m 494.18,480.31 c -2.5,0 -4.2,1.7 -4.2,3.6 0,1.9 1.7,3.6 4.2,3.4 4.5,-0.2 9,-0.4 14,-0.6 5,-0.2 10.5,-0.5 14,-0.6 3.5,-0.2 5,-0.3 7,-0.4 2,0 4.6,-0.1 7,-0.3 2.4,-0.1 4.7,-0.1 7,-0.2 2.3,-0.1 4.7,-0.2 7,-0.3 2.3,-0.1 4.7,-0.2 7,-0.3 0.7,0 1.2,-0.5 1.2,-1 0,-0.6 -0.5,-1 -1.2,-1 -2.3,-0.1 -4.7,-0.2 -7,-0.3 -2.3,-0.1 -4.7,-0.2 -7,-0.3 -2.3,0 -4.6,-0.1 -7,-0.2 -2.4,-0.1 -5,-0.2 -7,-0.3 -2,0 -3.5,-0.1 -7,-0.2 -3.5,-0.1 -9,-0.3 -14,-0.5 -5,-0.2 -9.5,-0.3 -14,-0.5 z"
     stroke-linecap="round"
     stroke-linejoin="round"
     ed:tosuperid="136" />
  <path
     stroke="#ff6e26"
     ed:parentid="101"
     id="139"
     fill="#ff6e26"
     d="m 375.78,510.41 c -0.6,-2.4 -2.5,-3.7 -4.3,-3.3 -1.9,0.5 -3.2,2.5 -2.5,4.9 2.7,9.1 5.4,18.2 8.8,27.1 3.3,8.8 7.4,17.4 11.7,25.7 4.4,8.4 9.1,16.6 14.2,24.5 5.1,7.9 10.5,15.6 16.4,23 5.9,7.4 12.2,14.5 18.7,21.1 6.4,6.7 13,12.8 21,18.9 7.9,6.2 17.3,12.3 23.3,15.9 6.1,3.7 8.9,4.9 12.6,6.6 3.6,1.6 8.1,3.6 13,5.4 4.9,1.7 10.1,3.2 13.5,4.1 3.4,0.9 4.9,1.2 6.9,1.6 2,0.4 4.6,0.9 7,1.2 2.4,0.4 4.7,0.7 7,0.9 2.3,0.2 4.6,0.4 7,0.5 2.4,0.1 4.7,0.1 7.1,0.1 0.7,0 1.2,-0.5 1.2,-1 0,-0.6 -0.5,-1 -1.2,-1 -2.3,-0.1 -4.7,-0.1 -7,-0.3 -2.3,-0.1 -4.6,-0.3 -6.9,-0.6 -2.3,-0.2 -4.5,-0.5 -6.9,-0.9 -2.3,-0.4 -4.8,-0.9 -6.8,-1.4 -1.9,-0.4 -3.4,-0.7 -6.7,-1.6 -3.3,-1 -8.4,-2.5 -13.2,-4.3 -4.7,-1.9 -9.1,-3.9 -12.7,-5.6 -3.5,-1.6 -6.3,-2.9 -12.2,-6.6 -5.8,-3.7 -14.9,-9.9 -22.6,-16 -7.7,-6.2 -14,-12.3 -20.2,-18.9 -6.2,-6.7 -12.3,-13.8 -18,-21.2 -5.6,-7.4 -10.8,-15 -15.7,-22.8 -4.8,-7.9 -9.3,-16 -13.4,-24.3 -4.2,-8.2 -8,-16.7 -11.1,-25.4 -3.1,-8.6 -5.5,-17.4 -8,-26.3 z"
     stroke-linecap="round"
     stroke-linejoin="round"
     ed:tosuperid="138" />
  <path
     stroke="#ff6e26"
     ed:parentid="138"
     id="141"
     fill="none"
     stroke-linecap="round"
     d="m 858.8,687.65 h 11 c 16.3,-85 16.3,-85 32.2,-85"
     stroke-linejoin="round"
     ed:tosuperid="140" />
  <path
     stroke="#ff6e26"
     ed:parentid="138"
     id="143"
     fill="none"
     stroke-linecap="round"
     d="M 869.8,687.6 C 886.1,631 886.1,631 902,631"
     stroke-linejoin="round"
     ed:tosuperid="142" />
  <path
     stroke="#ff6e26"
     ed:parentid="138"
     id="145"
     fill="none"
     stroke-linecap="round"
     d="m 869.8,687.55 c 16.3,-28.3 16.3,-28.3 32.2,-28.3"
     stroke-linejoin="round"
     ed:tosuperid="144" />
  <path
     stroke="#ff6e26"
     ed:parentid="138"
     id="147"
     fill="none"
     stroke-linecap="round"
     d="m 869.8,687.6 c 16.3,0 16.3,0 32.2,0"
     stroke-linejoin="round"
     ed:tosuperid="146" />
  <path
     stroke="#ff6e26"
     ed:parentid="138"
     id="149"
     fill="none"
     stroke-linecap="round"
     d="m 869.8,687.65 c 16.3,28.3 16.3,28.3 32.2,28.3"
     stroke-linejoin="round"
     ed:tosuperid="148" />
  <path
     stroke="#ff6e26"
     ed:parentid="138"
     id="151"
     fill="none"
     stroke-linecap="round"
     d="m 869.8,687.6 c 16.3,56.6 16.3,56.6 32.2,56.6"
     stroke-linejoin="round"
     ed:tosuperid="150" />
  <path
     stroke="#ff6e26"
     ed:parentid="138"
     id="153"
     fill="none"
     stroke-linecap="round"
     d="m 869.8,687.55 c 16.3,84.9 16.3,84.9 32.2,84.9"
     stroke-linejoin="round"
     ed:tosuperid="152" />
  <path
     stroke="#7cb342"
     ed:parentid="101"
     id="155"
     fill="#7cb342"
     d="m 355.78,511.01 c -0.2,-2.5 -1.8,-4.1 -3.8,-4 -1.9,0.2 -3.4,1.9 -3.2,4.5 1.5,14 2.9,28 4.8,41.9 2,13.9 4.5,27.8 7.3,41.6 2.8,13.7 5.9,27.4 9.3,41.1 3.4,13.6 7.1,27.1 11.1,40.6 4,13.4 8.4,26.8 13,40 4.7,13.3 9.7,26.4 15.2,39.3 5.4,13 11.3,25.9 17.5,38.3 6.3,12.5 12.9,24.5 20.7,36.8 7.8,12.2 16.8,24.7 24.8,34.1 7.9,9.5 14.8,15.9 19.7,20.2 4.8,4.3 7.6,6.4 11,8.8 3.4,2.4 7.4,5.1 11.9,7.6 4.6,2.5 9.6,4.7 12.9,6 3.2,1.3 4.7,1.7 6.7,2.2 2,0.5 4.6,1.2 6.9,1.7 2.3,0.5 4.4,0.8 7,1.1 2.6,0.2 5.6,0.3 7.1,0.4 1.5,0 1.5,0 1.5,0 0.3,-0.7 1.2,-0.5 1.2,-1 0,-0.6 -0.9,-1.7 -1.2,-1 0,0 0,0 -1.5,0 -1.4,-0.1 -4.4,-0.3 -6.9,-0.5 -2.4,-0.3 -4.5,-0.6 -6.8,-1.1 -2.2,-0.5 -4.7,-1.2 -6.7,-1.7 -1.9,-0.6 -3.3,-1 -6.5,-2.3 -3.1,-1.3 -8.1,-3.5 -12.5,-5.9 -4.4,-2.5 -8.3,-5.2 -11.6,-7.6 -3.3,-2.4 -6,-4.5 -10.7,-8.8 -4.7,-4.2 -11.4,-10.6 -19.2,-20 -7.8,-9.4 -16.6,-21.8 -24.2,-34 -7.6,-12.3 -14,-24.3 -20.1,-36.7 -6,-12.4 -11.7,-25.3 -17,-38.2 -5.3,-13 -10.1,-26.1 -14.6,-39.3 -4.5,-13.2 -8.7,-26.5 -12.6,-39.9 -3.8,-13.4 -7.4,-26.9 -10.6,-40.5 -3.3,-13.6 -6.2,-27.2 -8.8,-40.9 -2.7,-13.7 -5,-27.5 -6.8,-41.3 -1.8,-13.8 -3,-27.7 -4.3,-41.5 z"
     stroke-linecap="round"
     stroke-linejoin="round"
     ed:tosuperid="154" />
  <path
     stroke="#7cb342"
     ed:parentid="154"
     id="157"
     fill="none"
     stroke-linecap="round"
     d="m 834.8,912.25 h 11 c 16.3,-85 16.3,-85 32.2,-85"
     stroke-linejoin="round"
     ed:tosuperid="156" />
  <path
     stroke="#7cb342"
     ed:parentid="154"
     id="159"
     fill="none"
     stroke-linecap="round"
     d="m 845.8,912.2 c 16.3,-56.6 16.3,-56.6 32.2,-56.6"
     stroke-linejoin="round"
     ed:tosuperid="158" />
  <path
     stroke="#7cb342"
     ed:parentid="154"
     id="161"
     fill="none"
     stroke-linecap="round"
     d="m 845.8,912.15 c 16.3,-28.3 16.3,-28.3 32.2,-28.3"
     stroke-linejoin="round"
     ed:tosuperid="160" />
  <path
     stroke="#7cb342"
     ed:parentid="154"
     id="163"
     fill="none"
     stroke-linecap="round"
     d="m 845.8,912.2 c 16.3,0 16.3,0 32.2,0"
     stroke-linejoin="round"
     ed:tosuperid="162" />
  <path
     stroke="#7cb342"
     ed:parentid="154"
     id="165"
     fill="none"
     stroke-linecap="round"
     d="m 845.8,912.25 c 16.3,28.3 16.3,28.3 32.2,28.3"
     stroke-linejoin="round"
     ed:tosuperid="164" />
  <path
     stroke="#7cb342"
     ed:parentid="154"
     id="167"
     fill="none"
     stroke-linecap="round"
     d="m 845.8,912.2 c 16.3,56.6 16.3,56.6 32.2,56.6"
     stroke-linejoin="round"
     ed:tosuperid="166" />
  <path
     stroke="#7cb342"
     ed:parentid="154"
     id="169"
     fill="none"
     stroke-linecap="round"
     d="m 845.8,912.15 c 16.3,84.9 16.3,84.9 32.2,84.9"
     stroke-linejoin="round"
     ed:tosuperid="168" />
  <path
     stroke="#bb43fe"
     ed:parentid="136"
     id="175"
     fill="none"
     stroke-linecap="round"
     d="m 866.8,483.65 h 11 c 16.3,-48.3 16.3,-48.3 32.2,-48.3"
     stroke-linejoin="round"
     ed:tosuperid="174" />
  <path
     stroke="#bb43fe"
     ed:parentid="136"
     id="177"
     fill="none"
     stroke-linecap="round"
     d="m 877.8,483.6 c 16.3,-4 16.3,-4 32.2,-4"
     stroke-linejoin="round"
     ed:tosuperid="176" />
  <path
     stroke="#bb43fe"
     ed:parentid="136"
     id="179"
     fill="none"
     stroke-linecap="round"
     d="m 877.8,483.55 c 16.3,48.4 16.3,48.4 32.2,48.4"
     stroke-linejoin="round"
     ed:tosuperid="178" />
  <g
     transform="translate(27.33,458.03)"
     ed:topictype="mainidea"
     id="101"
     ed:width="466.86399999999998"
     ed:height="53.200000000000003"
     ed:layout="rightmap"
     style="-moz-user-select:none;-ms-user-select:none">
    <path
       fill-opacity="0.2"
       fill="#000000"
       filter="url(#filter2)"
       d="m 26.6,0 h 413.7 c 14.7,0 26.6,11.9 26.6,26.6 0,14.7 -11.9,26.6 -26.6,26.6 H 26.6 C 11.9,53.2 0,41.3 0,26.6 0,11.9 11.9,0 26.6,0 Z"
       id="path1" />
    <path
       fill="#7030a0"
       d="m 26.6,0 h 413.7 c 14.7,0 26.6,11.9 26.6,26.6 0,14.7 -11.9,26.6 -26.6,26.6 H 26.6 C 11.9,53.2 0,41.3 0,26.6 0,11.9 11.9,0 26.6,0 Z"
       id="path2" />
    <rect
       height="22.4"
       x="19.299999"
       y="15.7"
       fill="#7030a0"
       width="419.39999"
       id="rect2" />
    <text
       class="st3"
       id="text2"><tspan
         style="white-space:pre"
         x="23"
         y="33.5"
         id="tspan2"
         textLength="443">O Papel da Educação na Prevenção das Drogas</tspan></text>
  </g>
  <g
     transform="translate(557.2,36.45)"
     ed:parentid="101"
     id="112"
     ed:width="388"
     ed:height="41.200000000000003"
     style="-moz-user-select:none;-ms-user-select:none">
    <path
       fill="#f83d2e"
       d="m 4,0 h 380 c 2.7,0 4,1.3 4,4 v 33.2 c 0,2.7 -1.3,4 -4,4 H 4 c -2.7,0 -4,-1.3 -4,-4 V 4 C 0,1.3 1.3,0 4,0 Z"
       id="path3" />
    <text
       class="st3"
       id="text3"><tspan
         style="white-space:pre"
         x="20"
         y="27.5"
         id="tspan3"
         textLength="363">1. **Educar e Desenvolver Identidade**:</tspan></text>
  </g>
  <g
     transform="translate(988.4,20)"
     ed:parentid="112"
     id="114"
     ed:width="516"
     ed:height="37.799999999999997"
     style="-moz-user-select:none;-ms-user-select:none">
    <text
       class="st4"
       id="text5"><tspan
         style="white-space:pre"
         x="10"
         y="16.4"
         id="tspan4"
         textLength="486">A escola deve ajudar crianças e jovens a buscarem e desenvolverem sua identidade </tspan><tspan
         style="white-space:pre"
         x="10"
         y="32.400002"
         id="tspan5"
         textLength="89"
         lengthAdjust="spacing">e subjetividade.</tspan></text>
  </g>
  <g
     transform="translate(988.4,64.3)"
     ed:parentid="112"
     id="116"
     ed:width="443.19999999999999"
     ed:height="21.799999999999997"
     style="-moz-user-select:none;-ms-user-select:none">
    <text
       class="st4"
       id="text6"><tspan
         style="white-space:pre"
         x="10"
         y="16.4"
         id="tspan6"
         textLength="418"
         lengthAdjust="spacing">Promover a integração da educação intelectual e emocional é essencial.</tspan></text>
  </g>
  <g
     transform="translate(557.2,123.55)"
     ed:parentid="101"
     id="118"
     ed:width="535.20000000000005"
     ed:height="41.200000000000003"
     style="-moz-user-select:none;-ms-user-select:none">
    <path
       fill="#f7b426"
       d="m 4,0 h 527.2 c 2.7,0 4,1.3 4,4 v 33.2 c 0,2.7 -1.3,4 -4,4 H 4 c -2.7,0 -4,-1.3 -4,-4 V 4 C 0,1.3 1.3,0 4,0 Z"
       id="path6" />
    <text
       class="st3"
       id="text7"><tspan
         style="white-space:pre"
         x="20"
         y="27.5"
         id="tspan7"
         textLength="511"
         lengthAdjust="spacing">2. **Incentivar a Cidadania e Responsabilidade Social**:</tspan></text>
  </g>
  <g
     transform="translate(1135.6,119.1)"
     ed:parentid="118"
     id="120"
     ed:width="497.60000000000002"
     ed:height="21.799999999999997"
     style="-moz-user-select:none;-ms-user-select:none">
    <text
       class="st4"
       id="text8"><tspan
         style="white-space:pre"
         x="10"
         y="16.4"
         id="tspan8"
         textLength="471"
         lengthAdjust="spacing">A escola tem a responsabilidade de incentivar a cidadania e a consciência social.</tspan></text>
  </g>
  <g
     transform="translate(1135.6,147.4)"
     ed:parentid="118"
     id="122"
     ed:width="379.19999999999999"
     ed:height="21.799999999999997"
     style="-moz-user-select:none;-ms-user-select:none">
    <text
       class="st4"
       id="text9"><tspan
         style="white-space:pre"
         x="10"
         y="16.4"
         id="tspan9"
         textLength="352"
         lengthAdjust="spacing">Ensinar sobre responsabilidade individual e coletiva é crucial.</tspan></text>
  </g>
  <g
     transform="translate(557.2,222.65)"
     ed:parentid="101"
     id="124"
     ed:width="351.19999999999999"
     ed:height="41.200000000000003"
     style="-moz-user-select:none;-ms-user-select:none">
    <path
       fill="#26b14c"
       d="m 4,0 h 343.2 c 2.7,0 4,1.3 4,4 v 33.2 c 0,2.7 -1.3,4 -4,4 H 4 c -2.7,0 -4,-1.3 -4,-4 V 4 C 0,1.3 1.3,0 4,0 Z"
       id="path9" />
    <text
       class="st3"
       id="text10"><tspan
         style="white-space:pre"
         x="20"
         y="27.5"
         id="tspan10"
         textLength="325"
         lengthAdjust="spacing">3. **Promover Hábitos Saudáveis**:</tspan></text>
  </g>
  <g
     transform="translate(951.6,202.2)"
     ed:parentid="124"
     id="126"
     ed:width="516"
     ed:height="37.799999999999997"
     style="-moz-user-select:none;-ms-user-select:none">
    <text
       class="st4"
       id="text12"><tspan
         style="white-space:pre"
         x="10"
         y="16.4"
         id="tspan11"
         textLength="438"
         lengthAdjust="spacing">A escola deve garantir que os alunos incorporem hábitos saudáveis em seu </tspan><tspan
         style="white-space:pre"
         x="10"
         y="32.400002"
         id="tspan12"
         textLength="56"
         lengthAdjust="spacing">cotidiano.</tspan></text>
  </g>
  <g
     transform="translate(951.6,246.5)"
     ed:parentid="124"
     id="128"
     ed:width="516"
     ed:height="37.799999999999997"
     style="-moz-user-select:none;-ms-user-select:none">
    <text
       class="st4"
       id="text14"><tspan
         style="white-space:pre"
         x="10"
         y="16.4"
         id="tspan13"
         textLength="489"
         lengthAdjust="spacing">Isso inclui a conscientização sobre os riscos das drogas e a promoção de escolhas </tspan><tspan
         style="white-space:pre"
         x="10"
         y="32.400002"
         id="tspan14"
         textLength="61"
         lengthAdjust="spacing">saudáveis.</tspan></text>
  </g>
  <g
     transform="translate(557.2,333.75)"
     ed:parentid="101"
     id="130"
     ed:width="456"
     ed:height="41.200000000000003"
     style="-moz-user-select:none;-ms-user-select:none">
    <path
       fill="#1e61ff"
       d="m 4,0 h 448 c 2.7,0 4,1.3 4,4 v 33.2 c 0,2.7 -1.3,4 -4,4 H 4 c -2.7,0 -4,-1.3 -4,-4 V 4 C 0,1.3 1.3,0 4,0 Z"
       id="path14" />
    <text
       class="st3"
       id="text15"><tspan
         style="white-space:pre"
         x="20"
         y="27.5"
         id="tspan15"
         textLength="441"
         lengthAdjust="spacing">4. **Integração com Programas de Prevenção**:</tspan></text>
  </g>
  <g
     transform="translate(1056.4,317.3)"
     ed:parentid="130"
     id="132"
     ed:width="516"
     ed:height="37.799999999999997"
     style="-moz-user-select:none;-ms-user-select:none">
    <text
       class="st4"
       id="text17"><tspan
         style="white-space:pre"
         x="10"
         y="16.4"
         id="tspan16"
         textLength="428"
         lengthAdjust="spacing">A escola pode colaborar com programas de prevenção, como o Programa </tspan><tspan
         style="white-space:pre"
         x="10"
         y="32.400002"
         id="tspan17"
         textLength="374"
         lengthAdjust="spacing">Educacional de Resistência às Drogas e à Violência (PROERD).</tspan></text>
  </g>
  <g
     transform="translate(1056.4,361.6)"
     ed:parentid="130"
     id="134"
     ed:width="448"
     ed:height="21.799999999999997"
     style="-moz-user-select:none;-ms-user-select:none">
    <text
       class="st4"
       id="text18"><tspan
         style="white-space:pre"
         x="10"
         y="16.4"
         id="tspan18"
         textLength="422"
         lengthAdjust="spacing">Esses programas devem ser parte integrante da abordagem educacional.</tspan></text>
  </g>
  <g
     transform="translate(557.2,463)"
     ed:parentid="101"
     id="136"
     ed:width="309.60000000000002"
     ed:height="41.200000000000003"
     style="-moz-user-select:none;-ms-user-select:none">
    <path
       fill="#bb43fe"
       d="m 4,0 h 301.6 c 2.7,0 4,1.3 4,4 v 33.2 c 0,2.7 -1.3,4 -4,4 H 4 c -2.7,0 -4,-1.3 -4,-4 V 4 C 0,1.3 1.3,0 4,0 Z"
       id="path18" />
    <text
       class="st3"
       id="text19"><tspan
         style="white-space:pre"
         x="20"
         y="27.5"
         id="tspan19"
         textLength="282"
         lengthAdjust="spacing">5. Informação e Conhecimento</tspan></text>
  </g>
  <g
     transform="translate(557.2,667)"
     ed:parentid="101"
     id="138"
     ed:width="301.60000000000002"
     ed:height="41.200000000000003"
     style="-moz-user-select:none;-ms-user-select:none">
    <path
       fill="#ff6e26"
       d="m 4,0 h 293.6 c 2.7,0 4,1.3 4,4 v 33.2 c 0,2.7 -1.3,4 -4,4 H 4 c -2.7,0 -4,-1.3 -4,-4 V 4 C 0,1.3 1.3,0 4,0 Z"
       id="path19" />
    <text
       class="st3"
       id="text20"><tspan
         style="white-space:pre"
         x="20"
         y="27.5"
         id="tspan20"
         textLength="274"
         lengthAdjust="spacing">6. Combater a Estigmatização</tspan></text>
  </g>
  <g
     transform="translate(902,591.8)"
     ed:parentid="138"
     id="140"
     ed:width="153.59999999999999"
     ed:height="21.799999999999997"
     style="-moz-user-select:none;-ms-user-select:none">
    <text
       class="st4"
       id="text21"><tspan
         style="white-space:pre"
         x="10"
         y="16.4"
         id="tspan21"
         textLength="132"
         lengthAdjust="spacing">1. Educação Empática</tspan></text>
  </g>
  <g
     transform="translate(902,620.1)"
     ed:parentid="138"
     id="142"
     ed:width="146.40000000000001"
     ed:height="21.799999999999997"
     style="-moz-user-select:none;-ms-user-select:none">
    <text
       class="st4"
       id="text22"><tspan
         style="white-space:pre"
         x="10"
         y="16.4"
         id="tspan22"
         textLength="125"
         lengthAdjust="spacing">2. Políticas Inclusivas</tspan></text>
  </g>
  <g
     transform="translate(902,648.4)"
     ed:parentid="138"
     id="144"
     ed:width="173.59999999999999"
     ed:height="21.799999999999997"
     style="-moz-user-select:none;-ms-user-select:none">
    <text
       class="st4"
       id="text23"><tspan
         style="white-space:pre"
         x="10"
         y="16.4"
         id="tspan23"
         textLength="151"
         lengthAdjust="spacing">3. Combater Preconceitos</tspan></text>
  </g>
  <g
     transform="translate(902,676.7)"
     ed:parentid="138"
     id="146"
     ed:width="187.19999999999999"
     ed:height="21.799999999999997"
     style="-moz-user-select:none;-ms-user-select:none">
    <text
       class="st4"
       id="text24"><tspan
         style="white-space:pre"
         x="10"
         y="16.4"
         id="tspan24"
         textLength="164"
         lengthAdjust="spacing">4. Histórias de Recuperação</tspan></text>
  </g>
  <g
     transform="translate(902,705)"
     ed:parentid="138"
     id="148"
     ed:width="145.59999999999999"
     ed:height="21.799999999999997"
     style="-moz-user-select:none;-ms-user-select:none">
    <text
       class="st4"
       id="text25"><tspan
         style="white-space:pre"
         x="10"
         y="16.4"
         id="tspan25"
         textLength="125"
         lengthAdjust="spacing">5. Apoio Psicossocial</tspan></text>
  </g>
  <g
     transform="translate(902,733.3)"
     ed:parentid="138"
     id="150"
     ed:width="121.59999999999999"
     ed:height="21.799999999999997"
     style="-moz-user-select:none;-ms-user-select:none">
    <text
       class="st4"
       id="text26"><tspan
         style="white-space:pre"
         x="10"
         y="16.4"
         id="tspan26"
         textLength="99"
         lengthAdjust="spacing">6. Diálogo Aberto</tspan></text>
  </g>
  <g
     transform="translate(902,761.6)"
     ed:parentid="138"
     id="152"
     ed:width="215.19999999999999"
     ed:height="21.799999999999997"
     style="-moz-user-select:none;-ms-user-select:none">
    <text
       class="st4"
       id="text27"><tspan
         style="white-space:pre"
         x="10"
         y="16.4"
         id="tspan27"
         textLength="192"
         lengthAdjust="spacing">7. Entendimento da Dependência</tspan></text>
  </g>
  <g
     transform="translate(557.2,891.6)"
     ed:parentid="101"
     id="154"
     ed:width="277.60000000000002"
     ed:height="41.200000000000003"
     style="-moz-user-select:none;-ms-user-select:none">
    <path
       fill="#7cb342"
       d="m 4,0 h 269.6 c 2.7,0 4,1.3 4,4 v 33.2 c 0,2.7 -1.3,4 -4,4 H 4 c -2.7,0 -4,-1.3 -4,-4 V 4 C 0,1.3 1.3,0 4,0 Z"
       id="path27" />
    <text
       class="st3"
       id="text28"><tspan
         style="white-space:pre"
         x="20"
         y="27.5"
         id="tspan28"
         textLength="247"
         lengthAdjust="spacing">7. Envolvimento da Família</tspan></text>
  </g>
  <g
     transform="translate(878,816.4)"
     ed:parentid="154"
     id="156"
     ed:width="123.19999999999999"
     ed:height="21.799999999999997"
     style="-moz-user-select:none;-ms-user-select:none">
    <text
       class="st4"
       id="text29"><tspan
         style="white-space:pre"
         x="10"
         y="16.4"
         id="tspan29"
         textLength="103"
         lengthAdjust="spacing">1. Papel dos Pais</tspan></text>
  </g>
  <g
     transform="translate(878,844.7)"
     ed:parentid="154"
     id="158"
     ed:width="160"
     ed:height="21.799999999999997"
     style="-moz-user-select:none;-ms-user-select:none">
    <text
       class="st4"
       id="text30"><tspan
         style="white-space:pre"
         x="10"
         y="16.4"
         id="tspan30"
         textLength="136"
         lengthAdjust="spacing">2. Comunicação Efetiva</tspan></text>
  </g>
  <g
     transform="translate(878,873)"
     ed:parentid="154"
     id="160"
     ed:width="203.19999999999999"
     ed:height="21.799999999999997"
     style="-moz-user-select:none;-ms-user-select:none">
    <text
       class="st4"
       id="text31"><tspan
         style="white-space:pre"
         x="10"
         y="16.4"
         id="tspan31"
         textLength="183"
         lengthAdjust="spacing">3. Acompanhamento dos Filhos</tspan></text>
  </g>
  <g
     transform="translate(878,901.3)"
     ed:parentid="154"
     id="162"
     ed:width="149.59999999999999"
     ed:height="21.799999999999997"
     style="-moz-user-select:none;-ms-user-select:none">
    <text
       class="st4"
       id="text32"><tspan
         style="white-space:pre"
         x="10"
         y="16.4"
         id="tspan32"
         textLength="130"
         lengthAdjust="spacing">4. Estabelecer Limites</tspan></text>
  </g>
  <g
     transform="translate(878,929.6)"
     ed:parentid="154"
     id="164"
     ed:width="163.19999999999999"
     ed:height="21.799999999999997"
     style="-moz-user-select:none;-ms-user-select:none">
    <text
       class="st4"
       id="text33"><tspan
         style="white-space:pre"
         x="10"
         y="16.4"
         id="tspan33"
         textLength="139"
         lengthAdjust="spacing">5. Diálogo sobre Drogas</tspan></text>
  </g>
  <g
     transform="translate(878,957.9)"
     ed:parentid="154"
     id="166"
     ed:width="146.40000000000001"
     ed:height="21.799999999999997"
     style="-moz-user-select:none;-ms-user-select:none">
    <text
       class="st4"
       id="text34"><tspan
         style="white-space:pre"
         x="10"
         y="16.4"
         id="tspan34"
         textLength="125"
         lengthAdjust="spacing">6. Suporte Emocional</tspan></text>
  </g>
  <g
     transform="translate(878,986.2)"
     ed:parentid="154"
     id="168"
     ed:width="192"
     ed:height="21.799999999999997"
     style="-moz-user-select:none;-ms-user-select:none">
    <text
       class="st4"
       id="text35"><tspan
         style="white-space:pre"
         x="10"
         y="16.4"
         id="tspan35"
         textLength="170"
         lengthAdjust="spacing">7. Reconhecimento de Sinais</tspan></text>
  </g>
  <g
     transform="translate(910,416.4)"
     ed:parentid="136"
     id="174"
     ed:width="516"
     ed:height="37.799999999999997"
     style="-moz-user-select:none;-ms-user-select:none">
    <text
       class="st4"
       id="text37"><tspan
         style="white-space:pre"
         x="10"
         y="16.4"
         id="tspan36"
         textLength="491"
         lengthAdjust="spacing">1. Conscientização das consequências: Educar sobre os efeitos nocivos das drogas </tspan><tspan
         style="white-space:pre"
         x="10"
         y="32.400002"
         id="tspan37"
         textLength="190"
         lengthAdjust="spacing">na saúde e na vida das pessoas.</tspan></text>
  </g>
  <g
     transform="translate(910,460.7)"
     ed:parentid="136"
     id="176"
     ed:width="516"
     ed:height="37.799999999999997"
     style="-moz-user-select:none;-ms-user-select:none">
    <text
       class="st4"
       id="text39"><tspan
         style="white-space:pre"
         x="10"
         y="16.4"
         id="tspan38"
         textLength="488"
         lengthAdjust="spacing">2. Desenvolvimento de habilidades de resistência: Promover o ensino de estratégias </tspan><tspan
         style="white-space:pre"
         x="10"
         y="32.400002"
         id="tspan39"
         textLength="347"
         lengthAdjust="spacing">para lidar com a pressão social e resistir ao uso de drogas. </tspan></text>
  </g>
  <g
     transform="translate(910,505)"
     ed:parentid="136"
     id="178"
     ed:width="516"
     ed:height="53.799999999999997"
     style="-moz-user-select:none;-ms-user-select:none">
    <text
       class="st4"
       id="text42"><tspan
         style="white-space:pre"
         x="10"
         y="16.4"
         id="tspan40"
         textLength="488"
         lengthAdjust="spacing">3. Fornecer suporte emocional: Criar um ambiente escolar acolhedor que promova a </tspan><tspan
         style="white-space:pre"
         x="10"
         y="32.400002"
         id="tspan41"
         textLength="468"
         lengthAdjust="spacing">confiança e o diálogo para que os alunos possam buscar ajuda em situações de </tspan><tspan
         style="white-space:pre"
         x="10"
         y="48.400002"
         id="tspan42"
         textLength="88"
         lengthAdjust="spacing">vulnerabilidade.</tspan></text>
  </g>
  <svg
     height="1150"
     width="1655.1974"
     version="1.1"
     id="svg110"
     style="display:inline">
    <g
       height="118"
       style="-moz-user-select:none;-ms-user-select:none"
       transform="matrix(1.28261,0,0,1.28261,1244.76,0)"
       width="410.43478260869563"
       id="g110">
      <defs
         id="defs110">
        <linearGradient
           x2="-10.2643"
           gradientUnits="userSpaceOnUse"
           id="paint1_linear"
           x1="48"
           y1="60.254398"
           y2="-2.7646501">
          <stop
             stop-color="#008899"
             id="stop108" />
          <stop
             stop-color="#66FF66"
             offset="1"
             id="stop109" />
        </linearGradient>
        <clipPath
           id="clip2">
          <rect
             height="48"
             transform="translate(50,22)"
             fill="#ffffff"
             width="48"
             id="rect109"
             x="0"
             y="0" />
        </clipPath>
        <clipPath
           id="clip3">
          <rect
             height="48"
             x="50"
             rx="10.9515"
             y="22"
             fill="#ffffff"
             width="48"
             id="rect110" />
        </clipPath>
      </defs>
    </g>
  </svg>
</svg>
